<svg xmlns="http://www.w3.org/2000/svg" enable-background="new 0 0 32 32" viewBox="0 0 32 32" id="tab-add"><path d="M6,25.87305h14.37305c3.03223,0,5.5-2.46729,5.5-5.5V6c0-3.03271-2.46777-5.5-5.5-5.5H6C2.96729,0.5,0.5,2.96729,0.5,6v14.37305C0.5,23.40576,2.96729,25.87305,6,25.87305z M3.5,6c0-1.37842,1.12158-2.5,2.5-2.5h14.37305c1.37891,0,2.5,1.12158,2.5,2.5v14.37305c0,1.37842-1.12109,2.5-2.5,2.5H6c-1.37842,0-2.5-1.12158-2.5-2.5V6z"></path><path d="M30 11.68652c-.82813 0-1.5.67139-1.5 1.5V24c0 2.48145-2.01855 4.5-4.5 4.5H13.18652c-.82861 0-1.5.67139-1.5 1.5s.67139 1.5 1.5 1.5H24c4.13574 0 7.5-3.36426 7.5-7.5V13.18652C31.5 12.35791 30.82813 11.68652 30 11.68652zM8.70313 14.68652h2.9834v2.98291c0 .82861.67139 1.5 1.5 1.5s1.5-.67139 1.5-1.5v-2.98291h2.9834c.82813 0 1.5-.67139 1.5-1.5s-.67188-1.5-1.5-1.5h-2.9834v-2.9834c0-.82861-.67139-1.5-1.5-1.5s-1.5.67139-1.5 1.5v2.9834h-2.9834c-.82861 0-1.5.67139-1.5 1.5S7.87451 14.68652 8.70313 14.68652z"></path></svg>