<svg xmlns="http://www.w3.org/2000/svg" width="48" height="48" id="candidate"><path fill-rule="evenodd" d="M24 0A24 24 0 0 0 0 24a24 24 0 0 0 24 24 24 24 0 0 0 24-24A24 24 0 0 0 24 0zm-9.5 11h20a.5.5 0 0 1 .5.5v21a.5.5 0 0 1-.146.354l-4 4A.5.5 0 0 1 30.5 37h-16a.5.5 0 0 1-.5-.5v-25a.5.5 0 0 1 .5-.5zm.5 1v24.004h15a.5.5 0 0 1 0-.01V32.5a.5.5 0 0 1 .5-.5h3.492A.5.5 0 0 1 34 32V12H15zm3.5 2c.823 0 1.5.678 1.5 1.5 0 .823-.677 1.5-1.5 1.5s-1.5-.677-1.5-1.5c0-.822.677-1.5 1.5-1.5zm3.5 0h10v1H22v-1zm-3.5 1c-.282 0-.5.218-.5.5 0 .282.218.5.5.5.282 0 .5-.218.5-.5 0-.282-.218-.5-.5-.5zm3.5 1h4v1h-4v-1zm-3.5 3c.823 0 1.5.677 1.5 1.5s-.677 1.5-1.5 1.5-1.5-.677-1.5-1.5.677-1.5 1.5-1.5zm3.5 0h10v1H22v-1zm-3.5 1c-.282 0-.5.218-.5.5 0 .282.218.5.5.5.282 0 .5-.218.5-.5 0-.282-.218-.5-.5-.5zm3.5 1h2v1h-2v-1zm-3.5 3c.823 0 1.5.677 1.5 1.5s-.677 1.5-1.5 1.5-1.5-.677-1.5-1.5.677-1.5 1.5-1.5zm3.5 0h10v1H22v-1zm-3.5 1c-.282 0-.5.218-.5.5 0 .282.218.5.5.5.282 0 .5-.218.5-.5 0-.282-.218-.5-.5-.5zm3.5 1h6v1h-6v-1zm-3.5 3c.823 0 1.5.677 1.5 1.5s-.677 1.5-1.5 1.5-1.5-.677-1.5-1.5.677-1.5 1.5-1.5zm3.5 0h10v1H22v-1zm-3.5 1c-.282 0-.5.218-.5.5 0 .282.218.5.5.5.282 0 .5-.218.5-.5 0-.282-.218-.5-.5-.5zm3.5 1h4v1h-4v-1zm9 2v2.293L33.293 33H31z"></path></svg>