<svg xmlns="http://www.w3.org/2000/svg" data-name="Layer 1" viewBox="0 0 68 68" id="candidate-graph"><path d="M14 56.52A8.66 8.66 0 0 0 16 51a4.78 4.78 0 0 0-5-5 4.78 4.78 0 0 0-5 5 8.66 8.66 0 0 0 2 5.52A9 9 0 0 0 2 65a1 1 0 0 0 1 1h16a1 1 0 0 0 1-1 9 9 0 0 0-6-8.48zM37 56.52A8.66 8.66 0 0 0 39 51a4.78 4.78 0 0 0-5-5 4.78 4.78 0 0 0-5 5 8.66 8.66 0 0 0 2 5.52A9 9 0 0 0 25 65a1 1 0 0 0 1 1h16a1 1 0 0 0 1-1 9 9 0 0 0-6-8.48zM60 56.52A8.66 8.66 0 0 0 62 51a5 5 0 0 0-10 0 8.66 8.66 0 0 0 2 5.52A9 9 0 0 0 48 65a1 1 0 0 0 1 1h16a1 1 0 0 0 1-1 9 9 0 0 0-6-8.48zM7 44h8a1 1 0 0 0 1-1V7a1 1 0 0 0-1-1H7a1 1 0 0 0-1 1v36a1 1 0 0 0 1 1zM8 8h6v15.59l-6-6zM30 44h8a1 1 0 0 0 1-1V11a1 1 0 0 0-1-1h-8a1 1 0 0 0-1 1v32a1 1 0 0 0 1 1zm1-32h6v23.59l-6-6zM53 44h8a1 1 0 0 0 1-1V3a1 1 0 0 0-1-1h-8a1 1 0 0 0-1 1v40a1 1 0 0 0 1 1zm1-40h6v7.59l-6-6z"></path></svg>