<svg xmlns="http://www.w3.org/2000/svg" viewBox="0 0 96 96" id="announcement"><path d="M46 49.3c.7 0 1.3.1 2 .2V35c-.7.1-1.3.2-2 .2v14.1zm-12.5 1H29v.5c0 .8.7 1.5 1.5 1.5h9c.8 0 1.5-.7 1.5-1.5v-.5h-7.5zm3.5-15v14h8v-14h-8zm5.5 3h-3c-.3 0-.5-.2-.5-.5s.2-.5.5-.5h3c.3 0 .5.2.5.5s-.2.5-.5.5zM31 67.7h4.2l3.7-14.4H31zm2-32.4h-5.5c-1.4 0-2.5 1.1-2.5 2.5v9c0 1.4 1.1 2.5 2.5 2.5H33v-14zm-2.5 9h-3c-.3 0-.5-.2-.5-.5s.2-.5.5-.5h3c.3 0 .5.2.5.5s-.2.5-.5.5zm0-3h-3c-.3 0-.5-.2-.5-.5s.2-.5.5-.5h3c.3 0 .5.2.5.5s-.2.5-.5.5zm0-3h-3c-.3 0-.5-.2-.5-.5s.2-.5.5-.5h3c.3 0 .5.2.5.5s-.2.5-.5.5zm30.6 7s0-.1 0 0c-.1-1.7-.1-2.8-.1-3 0-.5 0-10.7 1.8-14h-1.1c-3.5 3.5-7.9 5.7-12.7 6.6v14.8c4.8.9 9.2 3.1 12.7 6.6h1.1c-1.2-2.2-1.6-7.5-1.7-11zM34 35.3h2v14h-2zm-13 4.5v2c0 .8.7 1.5 1.5 1.5H24v-5h-1.5c-.8 0-1.5.7-1.5 1.5z"></path><path d="M75.7 0H20.3C9.1 0 0 9.1 0 20.3v55.4C0 86.9 9.1 96 20.3 96h55.4C86.9 96 96 86.9 96 75.7V20.3C96 9.1 86.9 0 75.7 0zm-7.2 38.2c.9 0 1.8-.2 2.6-.7s1.5-1.1 1.9-1.9c.1-.2.4-.3.7-.2.2.1.3.4.2.7-.5 1-1.3 1.7-2.3 2.3-1 .5-2 .8-3.1.8-.3 0-.5-.2-.5-.5s.2-.5.5-.5zM64 57.3h-2.5c-.1 0-.3-.1-.4-.1-4.4-4.4-10.3-6.9-16.5-6.9H42v.5c0 1.2-.9 2.2-2 2.5l-4 15c-.1.2-.3.4-.5.4h-5.1c-.3 0-.5-.2-.5-.5v-15c-1.1-.2-2-1.2-2-2.4v-.5h-.5c-1.9 0-3.5-1.6-3.5-3.5v-2.5h-1.5c-1.4 0-2.5-1.1-2.5-2.5v-2c0-1.4 1.1-2.5 2.5-2.5H24c.2-1.7 1.7-3 3.4-3h17.1c6.3 0 12.1-2.4 16.5-6.9.1-.1.2-.1.4-.1H64c3 0 3 14.4 3 15s0 15-3 15zm9.7-8.1c-.1 0-.2.1-.2.1-.2 0-.3-.1-.4-.3-.5-.8-1.1-1.5-1.9-1.9s-1.7-.7-2.6-.7c-.3 0-.5-.2-.5-.5s.2-.5.5-.5c1.1 0 2.2.3 3.1.8 1 .6 1.7 1.3 2.3 2.3 0 .2 0 .5-.3.7zm1.8-6.4h-7c-.3 0-.5-.2-.5-.5s.2-.5.5-.5h7c.3 0 .5.2.5.5s-.2.5-.5.5z"></path><path d="M64 42.3c0-1.2-.8-2.2-2-2.4v4.8c1.2-.2 2-1.2 2-2.4z"></path><path d="M64 28.3c-.6.2-1.6 3.9-1.9 10.6 1.7.3 2.9 1.7 2.9 3.4s-1.3 3.2-2.9 3.4c.3 6.7 1.3 10.4 1.9 10.6.7-.2 2-5.1 2-14s-1.3-13.8-2-14z"></path></svg>